# xmcd
#
# Track frame offsets:
#	150
#	3870
#	22772
#	41217
#	60320
#	75925
#	91177
#	112135
#	129117
#	145972
#	163407
#	178380
#
# Disc length: 2594 seconds
#
# Revision: 4
# Processed by: cddbd v1.5.2PL0 Copyright (c) Steve Scherf et al.
# Submitted via: EasyCDDAExtractor 15.3.0.1
#
DISCID=910a200c
DTITLE=Paulina Rubio - Planeta Paulina
DYEAR=1996
DGENRE=Latin
TTITLE0=Introduccion
TTITLE1=Miel Y Sal
TTITLE2=Tu Y Yo
TTITLE3=Solo Por Ti
TTITLE4=Enamorada
TTITLE5=Miedo
TTITLE6=Siempre Tuya Desde La Raiz
TTITLE7=Sueño De Cristal
TTITLE8=Una Historia Mas
TTITLE9=Dime
TTITLE10=Despiertate
TTITLE11=Pobre Niña Rica
EXTD=
EXTT0=
EXTT1=
EXTT2=
EXTT3=
EXTT4=
EXTT5=
EXTT6=
EXTT7=
EXTT8=
EXTT9=
EXTT10=
EXTT11=
PLAYORDER=
